<svg width="1600" height="1000" viewBox="0 0 1600 1000" fill="none" xmlns="http://www.w3.org/2000/svg">
  <defs>
    <linearGradient id="bg" x1="0" y1="0" x2="1600" y2="1000" gradientUnits="userSpaceOnUse">
      <stop stop-color="#F7EFE4" />
      <stop offset="0.45" stop-color="#D9C0A9" />
      <stop offset="1" stop-color="#9AB2A1" />
    </linearGradient>
    <radialGradient id="sun" cx="0" cy="0" r="1" gradientUnits="userSpaceOnUse" gradientTransform="translate(1180 220) rotate(90) scale(170 170)">
      <stop stop-color="#FFF8ED" />
      <stop offset="1" stop-color="#FFF8ED" stop-opacity="0" />
    </radialGradient>
  </defs>
  <rect width="1600" height="1000" rx="64" fill="url(#bg)"/>
  <circle cx="1180" cy="220" r="170" fill="url(#sun)"/>
  <path d="M0 730C180 660 290 680 440 720C580 758 710 800 880 780C1040 760 1130 670 1280 640C1410 615 1510 650 1600 690V1000H0V730Z" fill="#17324D" fill-opacity="0.16"/>
  <path d="M0 790C190 730 330 760 490 808C650 857 760 874 920 838C1080 802 1160 722 1320 700C1460 682 1530 698 1600 730V1000H0V790Z" fill="#2F6F8F" fill-opacity="0.22"/>
  <circle cx="320" cy="250" r="110" fill="#B66A4B" fill-opacity="0.17"/>
  <circle cx="500" cy="180" r="62" fill="#FFFFFF" fill-opacity="0.25"/>
  <text x="110" y="520" fill="#1E1E1E" fill-opacity="0.9" font-size="84" font-family="Georgia, 'Times New Roman', serif" font-weight="700">MeditreTravel</text>
  <text x="112" y="590" fill="#1E1E1E" fill-opacity="0.7" font-size="34" font-family="Inter, Arial, sans-serif">Custom Mediterranean Journeys</text>
</svg>